<?xml version="1.0" encoding="UTF-8"?>
<svg version="1.1" xmlns="http://www.w3.org/2000/svg" width="512" height="512">
<path d="M0 0 C2.50957103 1.49080469 4.35146244 2.79596454 6.5 4.6875 C7.38558594 5.42419922 7.38558594 5.42419922 8.2890625 6.17578125 C9.55192248 7.22728391 10.80829713 8.28661675 12.05859375 9.35302734 C15.32632982 12.12517869 18.66880136 14.80479038 22 17.5 C23.35549967 18.60543083 24.71096861 19.71089936 26.06640625 20.81640625 C29.65675221 23.73372665 33.2886504 26.59391376 36.9375 29.4375 C42.94214522 34.1200215 48.81660123 38.94987865 54.68115234 43.80615234 C59.64935149 47.91129405 64.67853128 51.92533817 69.76171875 55.88671875 C74.91330455 59.90918986 79.9784561 64.0334778 85.04150391 68.16650391 C89.30330843 71.6390473 93.60133572 75.05841983 97.9375 78.4375 C103.95918536 83.13159691 109.84678443 87.97727915 115.72070312 92.85449219 C121.21777381 97.40179402 126.8371929 101.7511011 132.55859375 106.01171875 C136.03529074 108.84314078 136.93007381 110.38065372 137.4375 114.875 C137.63586646 118.13844828 137.06932531 118.92163226 134.84375 121.4375 C131.95144155 124.04375597 129.04341617 126.62097544 126.0625 129.125 C125.49893799 129.60018066 124.93537598 130.07536133 124.35473633 130.56494141 C119.7935179 134.38641771 115.13823494 138.07736767 110.44360352 141.73291016 C105.91415763 145.26404699 101.44843071 148.86747136 97 152.5 C91.93466019 156.63449822 86.8393331 160.72375361 81.6875 164.75 C76.72850347 168.62693327 71.82702555 172.56423009 66.96484375 176.5625 C57.81604143 184.08404499 48.6248003 191.54601604 39.28979492 198.83544922 C34.8160258 202.33731966 30.40160888 205.9079916 26 209.5 C18.7377677 215.42500903 11.40584761 221.25546415 4 227 C3.29359375 227.58652344 2.5871875 228.17304688 1.859375 228.77734375 C-1.27494749 230.83835833 -4.39042736 230.68930237 -8 230 C-10.43119623 228.12984906 -11.64069173 226.71861655 -13 224 C-13.08658569 221.44637396 -13.11562516 218.9204558 -13.09765625 216.3671875 C-13.09553383 215.23943405 -13.09553383 215.23943405 -13.09336853 214.08889771 C-13.08776465 211.6842249 -13.07521157 209.27964473 -13.0625 206.875 C-13.0574855 205.24609509 -13.0529225 203.61718873 -13.04882812 201.98828125 C-13.03779397 197.99215173 -13.02052679 193.99609158 -13 190 C-17.85701941 190.04434587 -22.71276258 190.11437787 -27.5690918 190.20751953 C-29.21872766 190.23562456 -30.86849558 190.25689091 -32.51831055 190.27099609 C-34.89960825 190.29257233 -37.27933588 190.33929245 -39.66015625 190.390625 C-40.38960953 190.39185364 -41.11906281 190.39308228 -41.87062073 190.39434814 C-46.98981697 190.53851249 -51.16197639 191.42929294 -55 195 C-59.63964617 201.91441385 -61.19564716 211.01622216 -63.3984375 218.96484375 C-63.59585163 219.67225771 -63.79326576 220.37967167 -63.99666214 221.10852242 C-65.03956943 224.84619467 -66.07434387 228.58600164 -67.10205078 232.32788086 C-68.15820221 236.16742287 -69.24128675 239.9988107 -70.33078575 243.82900143 C-71.17097052 246.80114334 -71.99119571 249.77853612 -72.80623245 252.75766182 C-73.19680511 254.17212819 -73.59464161 255.5846116 -74.00019455 256.99485588 C-76.34367008 265.17351711 -77.66622741 271.7297831 -75 280 C-74.56953369 281.72766602 -74.56953369 281.72766602 -74.13037109 283.49023438 C-73.84758301 284.51439453 -73.56479492 285.53855469 -73.2734375 286.59375 C-72.9640625 287.72554688 -72.6546875 288.85734375 -72.3359375 290.0234375 C-72.01882813 291.17070312 -71.70171875 292.31796875 -71.375 293.5 C-70.73471755 295.8222943 -70.09658038 298.1451815 -69.4609375 300.46875 C-69.18040527 301.48388672 -68.89987305 302.49902344 -68.61083984 303.54492188 C-68 306 -68 306 -68 308 C-66.96875 308 -65.9375 308 -64.875 308 C-62.24419433 308.35394374 -61.25578616 308.71914936 -59.4453125 310.70703125 C-58.50585485 312.07559253 -57.60444639 313.47134398 -56.75 314.89453125 C-53.94924885 318.26418498 -50.32958647 320.54275767 -46.02249146 321.38813782 C-43.89409761 321.5535402 -41.79490361 321.60577939 -39.66015625 321.609375 C-38.89319931 321.62591125 -38.12624237 321.64244751 -37.33604431 321.65948486 C-34.91144568 321.70766542 -32.48747273 321.72926756 -30.0625 321.75 C-28.40817215 321.77818496 -26.75387307 321.8081159 -25.09960938 321.83984375 C-21.06645786 321.91341533 -17.03364757 321.96317173 -13 322 C-13.01571045 320.99622314 -13.0314209 319.99244629 -13.04760742 318.95825195 C-13.10205114 315.22168045 -13.13640226 311.48514379 -13.16479492 307.74829102 C-13.17984876 306.13332211 -13.20029648 304.51839387 -13.22631836 302.90356445 C-13.26285286 300.57753445 -13.27976015 298.25204659 -13.29296875 295.92578125 C-13.30845261 295.20787918 -13.32393646 294.48997711 -13.33988953 293.75032043 C-13.34136614 289.31689031 -12.73671423 286.52100887 -10 283 C-6.76753191 281.38376596 -3.49887955 281.47342632 0 282 C2.49220003 283.4695283 4.30764547 284.75175445 6.4375 286.625 C7.0253125 287.11355469 7.613125 287.60210937 8.21875 288.10546875 C9.48967548 289.16413111 10.75363791 290.23119744 12.01123047 291.30566406 C14.75808238 293.64584971 17.54774878 295.93237062 20.33642578 298.22241211 C21.78607152 299.41343791 23.23364641 300.60698843 24.67919922 301.80297852 C29.09261076 305.4528948 33.54644752 309.0405227 38.0625 312.5625 C46.49207102 319.13655066 54.76001108 325.90649708 63.04101562 332.66601562 C70.54679292 338.79009662 78.07625122 344.87423668 85.71142578 350.83642578 C90.18481182 354.33794181 94.59875355 357.90837206 99 361.5 C104.0082805 365.58522808 109.03860525 369.63735831 114.125 373.625 C114.68606445 374.06521484 115.24712891 374.50542969 115.82519531 374.95898438 C118.84620762 377.32506762 121.87671103 379.6783684 124.9140625 382.0234375 C125.87675049 382.77052979 125.87675049 382.77052979 126.85888672 383.53271484 C128.08932309 384.48739114 129.3225848 385.43844078 130.55908203 386.38525391 C133.23146258 388.4625605 135.10373762 390.15560643 137 393 C137.63114754 398.59016393 137.63114754 398.59016393 137 401 C133.69410406 404.73709975 129.87805482 407.91976979 126.0625 411.125 C125.21606934 411.83885864 125.21606934 411.83885864 124.35253906 412.56713867 C119.81739817 416.36747668 115.18425607 420.03062177 110.51391602 423.66259766 C105.77381569 427.36025309 101.12904406 431.1645509 96.5 435 C90.80865451 439.71315544 85.06675008 444.34453269 79.23828125 448.88671875 C74.77910835 452.36853869 70.38260975 455.92242356 66 459.5 C61.06057874 463.53210829 56.09180764 467.51810853 51.0625 471.4375 C45.80243736 475.53938371 40.63764529 479.74595377 35.5 484 C29.18955098 489.22222069 22.83259017 494.36964708 16.3515625 499.37890625 C14.03338248 501.17342959 11.76888537 503.01770396 9.5234375 504.90234375 C8.95270508 505.36995117 8.38197266 505.83755859 7.79394531 506.31933594 C6.23058239 507.60094591 4.68115416 508.89950114 3.1328125 510.19921875 C-1.01580258 512.5838965 -3.27192956 512.44095994 -8 512 C-11.23613354 510.25746655 -11.82395315 509.52814056 -13 506 C-13.08481773 503.41369776 -13.11598229 500.85521944 -13.09765625 498.26953125 C-13.09553383 497.14390022 -13.09553383 497.14390022 -13.09336853 495.99552917 C-13.0877756 493.6011454 -13.07522444 491.20685547 -13.0625 488.8125 C-13.05748408 487.18815239 -13.05292134 485.56380332 -13.04882812 483.93945312 C-13.03780848 479.95959931 -13.02054873 475.97981556 -13 472 C-13.55693542 472.00666183 -14.11387085 472.01332367 -14.68768311 472.02018738 C-20.59478858 472.08764289 -26.50178124 472.13224608 -32.40917969 472.16479492 C-34.60063128 472.17968859 -36.79205414 472.20001031 -38.98339844 472.22631836 C-56.65341985 472.43281953 -74.16059335 471.76561766 -91.125 466.3125 C-91.93646484 466.05976318 -92.74792969 465.80702637 -93.58398438 465.54663086 C-128.09264156 454.41297081 -128.09264156 454.41297081 -134 444 C-133.835 442.7625 -133.67 441.525 -133.5 440.25 C-133.2564278 438.12933355 -133.2564278 438.12933355 -134 436 C-137.35853185 432.8352296 -141.0688065 430.39955967 -145 428 C-149.35804296 431.21375235 -153.62663897 434.50174526 -157.8125 437.9375 C-185.23609014 459.8268114 -220.21736755 472.31842013 -255.26000977 472.29052734 C-256.50247971 472.29724457 -257.74494965 472.30396179 -259.02507019 472.31088257 C-262.3840501 472.32645948 -265.74278265 472.33322694 -269.10178113 472.33451414 C-271.20549312 472.3359471 -273.30917998 472.34023745 -275.41288567 472.34550858 C-282.76493835 472.36391177 -290.11691918 472.37218924 -297.46899414 472.37060547 C-304.30621358 472.36939846 -311.14312027 472.39063446 -317.98026043 472.4220928 C-323.87442994 472.44824029 -329.76849689 472.4589738 -335.66272396 472.45769465 C-339.17332393 472.45718567 -342.6836435 472.46283671 -346.19418526 472.48405075 C-350.09776283 472.50700798 -354.00090689 472.49792178 -357.90454102 472.48583984 C-359.6399263 472.50269836 -359.6399263 472.50269836 -361.41036987 472.51989746 C-362.47402267 472.51150848 -363.53767548 472.50311951 -364.63356018 472.49447632 C-365.55468377 472.49556585 -366.47580736 472.49665539 -367.42484379 472.49777794 C-370.92356992 471.82147385 -372.56213198 470.57869418 -375 468 C-375.6292057 465.31972599 -375.6292057 465.31972599 -375.63491821 462.19972229 C-375.65606689 460.42271942 -375.65606689 460.42271942 -375.67764282 458.6098175 C-375.66752167 457.3135997 -375.65740051 456.0173819 -375.64697266 454.68188477 C-375.65374938 453.30025073 -375.66265282 451.91862572 -375.67352295 450.53701782 C-375.69631942 446.78681335 -375.68747858 443.03729656 -375.67162752 439.28708005 C-375.65896751 435.36161017 -375.67070913 431.43619912 -375.67855835 427.51072693 C-375.68765575 420.91744417 -375.67566597 414.32444141 -375.65185547 407.73120117 C-375.62465502 400.1113373 -375.63344966 392.49214256 -375.6609875 384.87229496 C-375.68368867 378.3286077 -375.68687347 371.78512173 -375.67379415 365.24140781 C-375.66600362 361.3338318 -375.66494653 357.42657011 -375.68147659 353.51901436 C-375.6959367 349.84401441 -375.68587308 346.16987548 -375.65700531 342.49496841 C-375.64725548 340.50522796 -375.66208248 338.51541456 -375.67764282 336.52571106 C-375.57676327 328.02920259 -375.57676327 328.02920259 -373.14888 323.69677734 C-368.4393259 321.1590291 -364.24468783 321.32901876 -358.97094727 321.40405273 C-357.85819427 321.3999942 -356.74544128 321.39593567 -355.59896851 321.39175415 C-353.18504897 321.38623711 -350.77108184 321.39224475 -348.35721016 321.40841484 C-344.53645717 321.43379267 -340.71678528 321.42904967 -336.89598083 321.41651917 C-329.47392777 321.39751781 -322.05228162 321.41144047 -314.63026428 321.43199158 C-304.54523056 321.45885761 -294.46055602 321.46510852 -284.37550163 321.43699837 C-280.61178758 321.43363431 -276.84873396 321.45487293 -273.08509827 321.47740173 C-270.77621313 321.47489047 -268.46732882 321.47133044 -266.15844727 321.46655273 C-265.11253922 321.47943832 -264.06663116 321.49232391 -262.98902893 321.50559998 C-257.12470546 321.465116 -253.61098107 320.99665828 -249 317 C-248.41700134 316.53038345 -247.83400269 316.06076691 -247.2333374 315.57691956 C-245.5537881 313.42948274 -244.99979657 311.3922334 -244.26660156 308.76928711 C-243.96328918 307.70064926 -243.65997681 306.63201141 -243.34747314 305.5309906 C-243.03171326 304.37478714 -242.71595337 303.21858368 -242.390625 302.02734375 C-242.0595575 300.83452286 -241.72848999 299.64170197 -241.38739014 298.41273499 C-240.51106373 295.23758729 -239.64550174 292.05970986 -238.7822876 288.88098145 C-237.90473794 285.67688374 -236.99761335 282.48106709 -236.09765625 279.28320312 C-235.42268669 276.82340782 -234.74945373 274.3631352 -234.078125 271.90234375 C-233.75426819 270.76030991 -233.43041138 269.61827606 -233.09674072 268.44163513 C-230.0623165 257.05665753 -231.92161526 248.28325542 -234.9140625 237.078125 C-235.20679047 235.97450623 -235.49951843 234.87088745 -235.80111694 233.73382568 C-236.42033023 231.41654859 -237.04415191 229.10049846 -237.67236328 226.78564453 C-238.62439035 223.25226266 -239.54078079 219.71077116 -240.45703125 216.16796875 C-241.0655297 213.90826637 -241.67613539 211.64913016 -242.2890625 209.390625 C-242.55602936 208.33740051 -242.82299622 207.28417603 -243.09805298 206.19903564 C-244.94668158 199.59206841 -247.13449711 195.71056057 -253 192 C-255.4027828 190.7986086 -256.88943778 190.8752945 -259.57270813 190.87542725 C-261.017435 190.87158272 -261.017435 190.87158272 -262.49134827 190.86766052 C-263.55163742 190.86976028 -264.61192657 190.87186005 -265.7043457 190.87402344 C-266.81826691 190.8721553 -267.93218811 190.87028717 -269.0798645 190.86836243 C-271.50529562 190.86435107 -273.93073053 190.86228292 -276.35616493 190.86190033 C-282.17084408 190.85805597 -287.98541168 190.83197714 -293.80003965 190.80868387 C-302.73316299 190.77357079 -311.66616716 190.74702134 -320.59936523 190.74951172 C-327.26730684 190.75127068 -333.93471487 190.72699138 -340.60256004 190.6876297 C-343.14666855 190.67714596 -345.69083041 190.67566299 -348.23494911 190.68328094 C-351.79296904 190.69287169 -355.34957827 190.67177618 -358.9074707 190.64355469 C-359.96168716 190.65375137 -361.01590363 190.66394806 -362.10206604 190.67445374 C-366.4457923 190.61256966 -369.29246213 190.38144552 -373.15284729 188.30024719 C-376.15408288 182.93803795 -375.69421813 177.59377623 -375.64697266 171.55249023 C-375.65375141 170.1690862 -375.662656 168.78569119 -375.67352295 167.40231323 C-375.69629097 163.65223469 -375.68749146 159.90284492 -375.67162752 156.15275455 C-375.65895785 152.22682274 -375.67071135 148.30094941 -375.67855835 144.37501526 C-375.68765078 137.78351259 -375.67567675 131.19229018 -375.65185547 124.60083008 C-375.62463341 116.98035761 -375.63346736 109.36055378 -375.6609875 101.74009746 C-375.68367589 95.19555641 -375.6868804 88.65121665 -375.67379415 82.10664898 C-375.66599949 78.19856082 -375.66495834 74.290787 -375.68147659 70.38271904 C-375.69591892 66.70934991 -375.68590567 63.03684327 -375.65700531 59.36356735 C-375.64723917 57.37245113 -375.66209603 55.38126197 -375.67764282 53.3901825 C-375.6635437 52.20551392 -375.64944458 51.02084534 -375.63491821 49.80027771 C-375.63303308 48.77067649 -375.63114796 47.74107527 -375.6292057 46.68027401 C-375 44 -375 44 -372.79361725 41.66880798 C-369.74174356 39.84572675 -368.18238189 39.49959889 -364.66720581 39.49879456 C-363.61077881 39.48896042 -362.55435181 39.47912628 -361.46591187 39.46899414 C-360.31684357 39.47866211 -359.16777527 39.48833008 -357.98388672 39.49829102 C-356.76521912 39.49288803 -355.54655151 39.48748505 -354.29095459 39.48191833 C-350.95087895 39.47155659 -347.61179487 39.47913959 -344.27180624 39.49562955 C-340.75730124 39.5095334 -337.24282462 39.50301227 -333.728302 39.49949646 C-327.81178564 39.49679355 -321.89547197 39.51025966 -315.97900391 39.53344727 C-309.1871535 39.5598855 -302.39564558 39.56185966 -295.60376155 39.5500589 C-289.03155481 39.53917333 -282.45946915 39.54556263 -275.88727188 39.55961418 C-273.11185895 39.56529902 -270.33653686 39.56535125 -267.56112289 39.56054878 C-248.77299695 39.5363274 -230.69405199 40.25587397 -212.5625 45.625 C-211.70543457 45.87515869 -210.84836914 46.12531738 -209.96533203 46.38305664 C-175.41065786 56.9363433 -175.41065786 56.9363433 -169.7265625 67.328125 C-169 70 -169 70 -169.21875 73.0390625 C-169.31386877 76.2127395 -169.31386877 76.2127395 -166.59375 78.3359375 C-165.5728125 79.00882812 -164.551875 79.68171875 -163.5 80.375 C-162.4790625 81.06335938 -161.458125 81.75171875 -160.40625 82.4609375 C-159.21515625 83.22277344 -159.21515625 83.22277344 -158 84 C-154.19039401 81.2095873 -150.42986572 78.43314584 -146.9375 75.25 C-115.75433245 48.29028629 -75.96234093 39.33240489 -35.8125 39.8125 C-33.58659773 39.82759361 -31.36068541 39.84127364 -29.13476562 39.85351562 C-23.75628587 39.88610535 -18.37819219 39.93592374 -13 40 C-13.01571045 38.99622314 -13.0314209 37.99244629 -13.04760742 36.95825195 C-13.10205114 33.22168045 -13.13640226 29.48514379 -13.16479492 25.74829102 C-13.17984876 24.13332211 -13.20029648 22.51839387 -13.22631836 20.90356445 C-13.26285286 18.57753445 -13.27976015 16.25204659 -13.29296875 13.92578125 C-13.30845261 13.20787918 -13.32393646 12.48997711 -13.33988953 11.75032043 C-13.34136614 7.31689031 -12.73671423 4.52100887 -10 1 C-6.7658805 -0.61705975 -3.49989103 -0.53290855 0 0 Z " fill="#020201" transform="translate(375,0)"/>
<path d="M0 0 C2.76655418 1.29108381 5.04962067 2.7064804 7.3984375 4.65234375 C8.03523438 5.17570312 8.67203125 5.6990625 9.328125 6.23828125 C10.34132813 7.07939453 10.34132813 7.07939453 11.375 7.9375 C12.81953475 9.12464492 14.26486093 10.31082742 15.7109375 11.49609375 C16.4337793 12.08890137 17.15662109 12.68170898 17.90136719 13.29248047 C20.90335184 15.734998 23.9475263 18.12109961 27 20.5 C35.44696456 27.09889008 43.73755145 33.888164 52.04101562 40.66601562 C59.54679292 46.79009662 67.07625122 52.87423668 74.71142578 58.83642578 C79.86512647 62.87045401 84.94446444 66.99280799 90.00390625 71.14428711 C93.33372231 73.86849695 96.68732494 76.54166363 100.125 79.12890625 C100.77726562 79.62390625 101.42953125 80.11890625 102.1015625 80.62890625 C103.3383117 81.56283003 104.58281969 82.48659433 105.8359375 83.3984375 C107.5 84.66015625 107.5 84.66015625 110 87 C110 91 110 91 108.75341797 92.47290039 C108.17221191 92.92656982 107.59100586 93.38023926 106.9921875 93.84765625 C106.0177771 94.62290649 106.0177771 94.62290649 105.02368164 95.41381836 C104.3146167 95.9578833 103.60555176 96.50194824 102.875 97.0625 C102.14724365 97.63685791 101.4194873 98.21121582 100.66967773 98.80297852 C98.45533364 100.54703649 96.22897496 102.27469977 94 104 C92.2419659 105.374085 90.48626052 106.7510918 88.73095703 108.12866211 C87.60935756 109.00851209 86.48661598 109.88690791 85.36279297 110.76391602 C80.67691511 114.4317272 76.08308304 118.20487482 71.5 122 C65.8085006 126.71297432 60.06675554 131.34452844 54.23828125 135.88671875 C49.77910752 139.36853934 45.38263657 142.92245524 41 146.5 C35.93458183 150.63440065 30.83939852 154.723834 25.6875 158.75 C18.48651747 164.37805089 11.36679146 170.10163963 4.4375 176.0625 C2 178 2 178 0 178 C-0.02505615 177.22809326 -0.0501123 176.45618652 -0.07592773 175.66088867 C-0.19184007 172.16958819 -0.31458824 168.67856078 -0.4375 165.1875 C-0.47681641 163.97255859 -0.51613281 162.75761719 -0.55664062 161.50585938 C-0.59853516 160.34248047 -0.64042969 159.17910156 -0.68359375 157.98046875 C-0.72025146 156.90692139 -0.75690918 155.83337402 -0.79467773 154.72729492 C-0.89541847 151.90688447 -0.89541847 151.90688447 -2 149 C-5.34795517 148.25518182 -8.47962614 147.86028428 -11.90698242 147.80712891 C-12.8553447 147.79106598 -13.80370697 147.77500305 -14.7808075 147.75845337 C-19.10817398 147.71356924 -23.43539414 147.67293942 -27.76293945 147.64990234 C-30.03713225 147.63336512 -32.31127356 147.60610491 -34.58520508 147.56787109 C-37.88389737 147.51277711 -41.18137678 147.49117805 -44.48046875 147.4765625 C-45.48498581 147.45389313 -46.48950287 147.43122375 -47.52445984 147.40786743 C-56.90928707 147.43560985 -64.57931411 150.93693559 -71.48510742 157.28833008 C-76.51583404 162.97252416 -78.80318499 169.77886149 -80.375 177.0625 C-82.13928412 184.64378719 -84.14455558 192.1051431 -86.375 199.5625 C-89.31826786 209.45863505 -91.95900207 219.41230325 -94.51293945 229.4152832 C-96.25941878 236.22738962 -98.11907076 242.98265093 -100.15673828 249.71264648 C-101.9239684 255.60317272 -103.46846525 261.54435444 -105 267.5 C-106.87542769 274.79293449 -108.84931632 282.03177386 -111.04174805 289.23535156 C-112.34003559 293.56874915 -113.49728117 297.92145606 -114.5859375 302.3125 C-122.71310118 335.0827186 -134.44356427 361.63591505 -158 386 C-158.92039063 386.99773437 -158.92039063 386.99773437 -159.859375 388.015625 C-181.30584701 410.73614485 -217.42308452 428.03250185 -248.67342567 429.09051132 C-251.67279364 429.12222875 -254.67064596 429.12376168 -257.67016602 429.11352539 C-259.39651354 429.11370619 -259.39651354 429.11370619 -261.15773678 429.11389065 C-264.85648009 429.11314857 -268.55517203 429.1055526 -272.25390625 429.09765625 C-274.54813615 429.09618465 -276.84236638 429.09516528 -279.13659668 429.09460449 C-287.61190293 429.08937692 -296.08720198 429.07541565 -304.5625 429.0625 C-332.9940625 429.0315625 -332.9940625 429.0315625 -362 429 C-362 390.72 -362 352.44 -362 313 C-309.75 312.875 -309.75 312.875 -293.31152344 312.88232422 C-288.40723089 312.85575722 -288.40723089 312.85575722 -283.50299072 312.82131958 C-281.335215 312.80985042 -279.16735744 312.80998204 -276.99957275 312.8196106 C-262.31329368 312.87448218 -251.74318693 312.61118264 -240.0625 302.875 C-233.19742547 295.17880264 -231.27011683 284.66186647 -228.94482422 274.90942383 C-227.5001389 268.86745123 -225.83421043 262.93462229 -224 257 C-221.69384684 249.5031673 -219.68278305 241.9736956 -217.82202148 234.35498047 C-215.93707329 226.6570418 -213.81949857 219.0353357 -211.67236328 211.40722656 C-210.42581984 206.94429327 -209.21512542 202.47156875 -208 198 C-205.98652342 190.59914766 -203.95396082 183.20410876 -201.89013672 175.81713867 C-200.7746572 171.81669173 -199.67725475 167.81212472 -198.6015625 163.80078125 C-197.09640557 158.19243565 -195.56070041 152.59314114 -194 147 C-193.72929687 146.02772461 -193.45859375 145.05544922 -193.1796875 144.05371094 C-186.49154685 120.30924897 -176.84817035 100.96056498 -161 82 C-160.56300781 81.44054687 -160.12601563 80.88109375 -159.67578125 80.3046875 C-156.83962559 76.70531387 -153.6236433 73.78966602 -150.14453125 70.83984375 C-148.73933884 69.63429616 -147.36003096 68.39775016 -146.01171875 67.12890625 C-120.02818537 42.80910194 -85.69763495 31.00707308 -50.6328125 30.7890625 C-48.09374317 30.76102851 -45.55468073 30.73236437 -43.015625 30.703125 C-39.0524083 30.66169765 -35.08932551 30.62476478 -31.12597656 30.59863281 C-27.27382716 30.57109711 -23.42224447 30.52527251 -19.5703125 30.4765625 C-18.38382111 30.47330963 -17.19732971 30.47005676 -15.97488403 30.46670532 C-14.86958344 30.45013885 -13.76428284 30.43357239 -12.62548828 30.41650391 C-11.65717072 30.40841705 -10.68885315 30.4003302 -9.69119263 30.39199829 C-6.21204422 29.8852266 -3.50310232 28.50310232 -1 26 C-0.84193469 24.07521187 -0.748865 22.1450079 -0.68359375 20.21484375 C-0.64169922 19.04501953 -0.59980469 17.87519531 -0.55664062 16.66992188 C-0.49766602 14.82237305 -0.49766602 14.82237305 -0.4375 12.9375 C-0.39431641 11.70193359 -0.35113281 10.46636719 -0.30664062 9.19335938 C-0.20015802 6.12902665 -0.09814576 3.06460927 0 0 Z " fill="#FEE676" transform="translate(379,26)"/>
<path d="M0 0 C2 1 2 1 3.05322266 4.11108398 C3.43193617 5.48712725 3.80158537 6.86568464 4.1640625 8.24609375 C4.45946426 9.33556053 4.45946426 9.33556053 4.76083374 10.44703674 C5.1763379 11.98524864 5.58798573 13.52450656 5.99609375 15.06469727 C6.6220236 17.42627032 7.25913448 19.78459413 7.8984375 22.14257812 C8.30013732 23.6352397 8.70120038 25.12807282 9.1015625 26.62109375 C9.2921524 27.32946884 9.48274231 28.03784393 9.67910767 28.76768494 C11 33.76523066 11 33.76523066 11 36 C12.03125 36 13.0625 36 14.125 36 C16.75580567 36.35394374 17.74421384 36.71914936 19.5546875 38.70703125 C20.49414515 40.07559253 21.39555361 41.47134398 22.25 42.89453125 C25.05075115 46.26418498 28.67041353 48.54275767 32.97750854 49.38813782 C35.10590239 49.5535402 37.20509639 49.60577939 39.33984375 49.609375 C40.10680069 49.62591125 40.87375763 49.64244751 41.66395569 49.65948486 C44.08855432 49.70766542 46.51252727 49.72926756 48.9375 49.75 C50.59182785 49.77818496 52.24612693 49.8081159 53.90039062 49.83984375 C57.93354214 49.91341533 61.96635243 49.96317173 66 50 C65.97643433 48.49433472 65.97643433 48.49433472 65.95239258 46.95825195 C65.89794886 43.22168045 65.86359774 39.48514379 65.83520508 35.74829102 C65.82015124 34.13332211 65.79970352 32.51839387 65.77368164 30.90356445 C65.73714714 28.57753445 65.72023985 26.25204659 65.70703125 23.92578125 C65.69154739 23.20787918 65.67606354 22.48997711 65.66011047 21.75032043 C65.65863386 17.31689031 66.26328577 14.52100887 69 11 C72.23246809 9.38376596 75.50112045 9.47342632 79 10 C81.49220003 11.4695283 83.30764547 12.75175445 85.4375 14.625 C86.0253125 15.11355469 86.613125 15.60210937 87.21875 16.10546875 C88.48967548 17.16413111 89.75363791 18.23119744 91.01123047 19.30566406 C93.75808238 21.64584971 96.54774878 23.93237062 99.33642578 26.22241211 C100.78607152 27.41343791 102.23364641 28.60698843 103.67919922 29.80297852 C108.09261076 33.4528948 112.54644752 37.0405227 117.0625 40.5625 C125.49207102 47.13655066 133.76001108 53.90649708 142.04101562 60.66601562 C149.54679292 66.79009662 157.07625122 72.87423668 164.71142578 78.83642578 C169.18481182 82.33794181 173.59875355 85.90837206 178 89.5 C183.0082805 93.58522808 188.03860525 97.63735831 193.125 101.625 C193.68606445 102.06521484 194.24712891 102.50542969 194.82519531 102.95898438 C197.84620762 105.32506762 200.87671103 107.6783684 203.9140625 110.0234375 C204.55585449 110.52149902 205.19764648 111.01956055 205.85888672 111.53271484 C207.08932309 112.48739114 208.3225848 113.43844078 209.55908203 114.38525391 C212.23146258 116.4625605 214.10373762 118.15560643 216 121 C216.63114754 126.59016393 216.63114754 126.59016393 216 129 C212.69410406 132.73709975 208.87805482 135.91976979 205.0625 139.125 C204.21606934 139.83885864 204.21606934 139.83885864 203.35253906 140.56713867 C198.81739817 144.36747668 194.18425607 148.03062177 189.51391602 151.66259766 C184.77381569 155.36025309 180.12904406 159.1645509 175.5 163 C169.80865451 167.71315544 164.06675008 172.34453269 158.23828125 176.88671875 C153.77910835 180.36853869 149.38260975 183.92242356 145 187.5 C140.06057874 191.53210829 135.09180764 195.51810853 130.0625 199.4375 C124.80243736 203.53938371 119.63764529 207.74595377 114.5 212 C108.18955098 217.22222069 101.83259017 222.36964708 95.3515625 227.37890625 C93.03338248 229.17342959 90.76888537 231.01770396 88.5234375 232.90234375 C87.95270508 233.36995117 87.38197266 233.83755859 86.79394531 234.31933594 C85.23058239 235.60094591 83.68115416 236.89950114 82.1328125 238.19921875 C77.98419742 240.5838965 75.72807044 240.44095994 71 240 C67.76386646 238.25746655 67.17604685 237.52814056 66 234 C65.91518227 231.41369776 65.88401771 228.85521944 65.90234375 226.26953125 C65.90446617 225.14390022 65.90446617 225.14390022 65.90663147 223.99552917 C65.9122244 221.6011454 65.92477556 219.20685547 65.9375 216.8125 C65.94251592 215.18815239 65.94707866 213.56380332 65.95117188 211.93945312 C65.96219152 207.95959931 65.97945127 203.97981556 66 200 C65.44306458 200.00666183 64.88612915 200.01332367 64.31231689 200.02018738 C58.40521142 200.08764289 52.49821876 200.13224608 46.59082031 200.16479492 C44.39936872 200.17968859 42.20794586 200.20001031 40.01660156 200.22631836 C22.34658015 200.43281953 4.83940665 199.76561766 -12.125 194.3125 C-12.93646484 194.05976318 -13.74792969 193.80702637 -14.58398438 193.54663086 C-49.09264156 182.41297081 -49.09264156 182.41297081 -55 172 C-54.835 170.7625 -54.67 169.525 -54.5 168.25 C-54.2556439 166.12121461 -54.2556439 166.12121461 -55 164 C-57.7034598 161.56948566 -60.5093041 159.68170843 -63.59375 157.76171875 C-64.78484375 156.88966797 -64.78484375 156.88966797 -66 156 C-66 153 -66 153 -64.26953125 151.1171875 C-63.05330078 150.00730469 -63.05330078 150.00730469 -61.8125 148.875 C-36.80935112 124.47220922 -24.86257548 93.32886871 -16.75244141 60.03515625 C-15.72635889 55.89620172 -14.59827053 51.79038457 -13.4375 47.6875 C-13.0401186 46.2761109 -12.64298428 44.86465221 -12.24609375 43.453125 C-12.04612793 42.74220703 -11.84616211 42.03128906 -11.64013672 41.29882812 C-10.66540981 37.79843583 -9.71944337 34.29034914 -8.77026367 30.78295898 C-5.98131667 20.48020867 -3.06451819 10.22410049 0 0 Z " fill="#FDA57F" transform="translate(296,272)"/>
<path d="M0 0 C17.139375 -0.04125 34.27875 -0.0825 51.9375 -0.125 C60.00626587 -0.15231201 60.00626587 -0.15231201 68.23803711 -0.18017578 C74.88977051 -0.18920898 74.88977051 -0.18920898 78.01979065 -0.19088745 C80.17071871 -0.19392586 82.32164371 -0.2008905 84.47254944 -0.21115112 C97.48755755 -0.27004551 110.11640436 0.0515481 123 2 C123.70365944 2.10467213 124.40731888 2.20934425 125.13230133 2.31718826 C143.27164023 5.02219448 161.68422794 11.7894853 177 22 C182.55250197 22.51412055 183.9807193 22.01156842 189 19 C192.96 21.97 196.92 24.94 201 28 C199.7967429 32.81302839 198.79166377 33.03261096 195 36 C173.31306849 57.74340789 160.80982661 86.76658804 153.53588867 116.06762695 C152.16615958 121.57856718 150.7178175 127.02681706 149.015625 132.4453125 C146.48758652 140.49652586 144.48917722 148.67076002 142.46875 156.86132812 C142.17742187 158.01439453 141.88609375 159.16746094 141.5859375 160.35546875 C141.19994385 161.91237427 141.19994385 161.91237427 140.80615234 163.50073242 C140 166 140 166 138 168 C135.87083653 163.26309962 134.81527999 158.34308225 133.625 153.3125 C130.47539942 140.50703848 127.53412365 129.67043285 115.875 122.125 C114.60809804 121.37326979 113.31450821 120.66498651 112 120 C111.34820267 119.6557901 110.69640533 119.3115802 110.02485657 118.9569397 C105.56584419 117.54629233 101.26107895 117.69141478 96.61010742 117.68115234 C95.54890088 117.67099909 94.48769434 117.66084583 93.39433002 117.6503849 C89.96471299 117.61978843 86.53517882 117.6026036 83.10546875 117.5859375 C80.98587327 117.56900061 78.86628464 117.55118372 76.7467041 117.5324707 C68.89371462 117.46931259 61.04059561 117.42318901 53.1875 117.375 C35.635625 117.25125 18.08375 117.1275 0 117 C0 78.39 0 39.78 0 0 Z " fill="#FCA47F" transform="translate(16,56)"/>
<path d="M0 0 C2.49220003 1.4695283 4.30764547 2.75175445 6.4375 4.625 C7.0253125 5.11355469 7.613125 5.60210937 8.21875 6.10546875 C9.48967548 7.16413111 10.75363791 8.23119744 12.01123047 9.30566406 C14.75808238 11.64584971 17.54774878 13.93237062 20.33642578 16.22241211 C21.78607152 17.41343791 23.23364641 18.60698843 24.67919922 19.80297852 C29.09261076 23.4528948 33.54644752 27.0405227 38.0625 30.5625 C46.49207102 37.13655066 54.76001108 43.90649708 63.04101562 50.66601562 C70.54679292 56.79009662 78.07625122 62.87423668 85.71142578 68.83642578 C90.18481182 72.33794181 94.59875355 75.90837206 99 79.5 C104.0082805 83.58522808 109.03860525 87.63735831 114.125 91.625 C114.68606445 92.06521484 115.24712891 92.50542969 115.82519531 92.95898438 C118.84620762 95.32506762 121.87671103 97.6783684 124.9140625 100.0234375 C125.55585449 100.52149902 126.19764648 101.01956055 126.85888672 101.53271484 C128.08932309 102.48739114 129.3225848 103.43844078 130.55908203 104.38525391 C133.23146258 106.4625605 135.10373762 108.15560643 137 111 C137.63114754 116.59016393 137.63114754 116.59016393 137 119 C133.69410406 122.73709975 129.87805482 125.91976979 126.0625 129.125 C125.21606934 129.83885864 125.21606934 129.83885864 124.35253906 130.56713867 C119.81739817 134.36747668 115.18425607 138.03062177 110.51391602 141.66259766 C105.77381569 145.36025309 101.12904406 149.1645509 96.5 153 C90.80865451 157.71315544 85.06675008 162.34453269 79.23828125 166.88671875 C74.77910835 170.36853869 70.38260975 173.92242356 66 177.5 C61.06057874 181.53210829 56.09180764 185.51810853 51.0625 189.4375 C45.80243736 193.53938371 40.63764529 197.74595377 35.5 202 C29.18955098 207.22222069 22.83259017 212.36964708 16.3515625 217.37890625 C14.03338248 219.17342959 11.76888537 221.01770396 9.5234375 222.90234375 C8.95270508 223.36995117 8.38197266 223.83755859 7.79394531 224.31933594 C6.23058239 225.60094591 4.68115416 226.89950114 3.1328125 228.19921875 C-1.01580258 230.5838965 -3.27192956 230.44095994 -8 230 C-11.23613354 228.25746655 -11.82395315 227.52814056 -13 224 C-13.08481773 221.41369776 -13.11598229 218.85521944 -13.09765625 216.26953125 C-13.0962413 215.51911057 -13.09482635 214.76868988 -13.09336853 213.99552917 C-13.0877756 211.6011454 -13.07522444 209.20685547 -13.0625 206.8125 C-13.05748408 205.18815239 -13.05292134 203.56380332 -13.04882812 201.93945312 C-13.03780848 197.95959931 -13.02054873 193.97981556 -13 190 C-13.55693542 190.00666183 -14.11387085 190.01332367 -14.68768311 190.02018738 C-20.59478858 190.08764289 -26.50178124 190.13224608 -32.40917969 190.16479492 C-34.60063128 190.17968859 -36.79205414 190.20001031 -38.98339844 190.22631836 C-56.65341985 190.43281953 -74.16059335 189.76561766 -91.125 184.3125 C-91.93646484 184.05976318 -92.74792969 183.80702637 -93.58398438 183.54663086 C-127.4941006 172.60608037 -127.4941006 172.60608037 -134 162 C-134.68234041 157.9912501 -134.3158333 156.47884404 -132.0625 153.0625 C-128.26554364 150.50536613 -126.75133599 150.83956427 -122.39672852 151.44555664 C-118.5072693 152.34531847 -115.35185211 154.17256633 -111.9375 156.1875 C-84.80036986 171.35218936 -57.76869495 172.31666254 -27.33349609 172.45629883 C-23.43829437 172.47522097 -19.54346622 172.51726321 -15.6484375 172.55859375 C-13.85471207 172.55876747 -13.85471207 172.55876747 -12.02474976 172.5589447 C-10.91233917 172.57228348 -9.79992859 172.58562225 -8.65380859 172.59936523 C-7.67979095 172.60443588 -6.70577332 172.60950653 -5.70223999 172.61473083 C-1.55584608 173.2058988 1.07916168 175.07916168 4 178 C4.22705078 180.61376953 4.22705078 180.61376953 4.1953125 183.8828125 C4.18564453 185.63271484 4.18564453 185.63271484 4.17578125 187.41796875 C4.15064453 189.25294922 4.15064453 189.25294922 4.125 191.125 C4.11597656 192.35605469 4.10695313 193.58710938 4.09765625 194.85546875 C4.07402548 197.90383815 4.04108054 200.95182382 4 204 C12.08352867 197.69737374 20.09677655 191.31878468 28.03735352 184.83691406 C32.30051376 181.36318994 36.59998656 177.9427691 40.9375 174.5625 C46.1975569 170.46062077 51.36250363 166.25421962 56.5 162 C62.1914994 157.28702568 67.93324446 152.65547156 73.76171875 148.11328125 C78.22089331 144.63146002 82.61733657 141.07751304 87 137.5 C93.28147269 132.37375817 99.62236498 127.33080207 106.01171875 122.33984375 C108.6887134 120.24373944 111.34940139 118.12933061 114 116 C112.68307321 112.04921962 110.14617638 110.53756792 106.9375 108.125 C105.65912914 107.14326309 104.38182768 106.16013245 103.10546875 105.17578125 C102.43435059 104.65967285 101.76323242 104.14356445 101.07177734 103.61181641 C97.58653466 100.90034196 94.16947128 98.10614582 90.75 95.3125 C89.39077362 94.20424478 88.03140271 93.0961668 86.671875 91.98828125 C86.03701172 91.47088379 85.40214844 90.95348633 84.74804688 90.42041016 C82.50879454 88.60086126 80.25636129 86.79827452 78 85 C74.42120755 82.14777448 70.86737282 79.26647524 67.3203125 76.375 C61.023772 71.24272548 54.69257157 66.16414533 48.29003906 61.16479492 C43.81624627 57.6627686 39.40171885 54.09205576 35 50.5 C24.79161033 42.17220039 14.40083842 34.085158 4 26 C4.02094727 26.76666992 4.04189453 27.53333984 4.06347656 28.32324219 C4.14665158 31.7986946 4.19866575 35.27393763 4.25 38.75 C4.28351563 39.9565625 4.31703125 41.163125 4.3515625 42.40625 C4.36445313 43.56640625 4.37734375 44.7265625 4.390625 45.921875 C4.41157227 46.99018555 4.43251953 48.05849609 4.45410156 49.15917969 C3.88736922 52.70460849 2.79885061 53.8228354 0 56 C-2.85261157 56.95087052 -4.71476574 57.14712889 -7.67993164 57.19287109 C-8.62844498 57.20893402 -9.57695831 57.22499695 -10.55421448 57.24154663 C-14.90682129 57.28623788 -19.25927739 57.32709502 -23.61206055 57.35009766 C-25.89992478 57.36660952 -28.18773846 57.39383581 -30.4753418 57.43212891 C-33.7872168 57.48724295 -37.09788271 57.50882883 -40.41015625 57.5234375 C-41.42094742 57.54610687 -42.43173859 57.56877625 -43.47315979 57.59213257 C-53.51510085 57.5626451 -61.03080026 53.62301676 -68.3046875 46.8203125 C-71.87776961 42.98377733 -73.77999734 39.62251964 -74.5 34.3125 C-74 31 -74 31 -72.4375 28.625 C-69.14507816 26.4300521 -66.95830645 25.93055603 -63 26 C-60.375 28.125 -60.375 28.125 -58 31 C-53.00653963 36.24313339 -49.58421666 39.280748 -42.09721375 39.49235535 C-40.98754997 39.50194023 -40.98754997 39.50194023 -39.85546875 39.51171875 C-38.7007885 39.53864555 -38.7007885 39.53864555 -37.52278137 39.56611633 C-35.07774236 39.62005387 -32.63289668 39.65406073 -30.1875 39.6875 C-28.52406174 39.72068782 -26.86064893 39.75517884 -25.19726562 39.79101562 C-21.13165029 39.87577037 -17.06609064 39.94265973 -13 40 C-13.01571045 38.99622314 -13.0314209 37.99244629 -13.04760742 36.95825195 C-13.10205114 33.22168045 -13.13640226 29.48514379 -13.16479492 25.74829102 C-13.17984876 24.13332211 -13.20029648 22.51839387 -13.22631836 20.90356445 C-13.26285286 18.57753445 -13.27976015 16.25204659 -13.29296875 13.92578125 C-13.30845261 13.20787918 -13.32393646 12.48997711 -13.33988953 11.75032043 C-13.34136614 7.31689031 -12.73671423 4.52100887 -10 1 C-6.76753191 -0.61623404 -3.49887955 -0.52657368 0 0 Z " fill="#010100" transform="translate(375,282)"/>
<path d="M0 0 C2 1 2 1 3.05322266 4.09521484 C3.43202604 5.46479345 3.80166516 6.83692668 4.1640625 8.2109375 C4.45946426 9.29684677 4.45946426 9.29684677 4.76083374 10.4046936 C5.17638545 11.9386937 5.58803114 13.47375637 5.99609375 15.00976562 C6.6211736 17.3606094 7.258732 19.70778645 7.8984375 22.0546875 C8.30022258 23.54407048 8.7012881 25.03364781 9.1015625 26.5234375 C9.2921524 27.22665131 9.48274231 27.92986511 9.67910767 28.65438843 C10.43892927 31.52881411 11 34.01200089 11 37 C10.0409375 37.433125 10.0409375 37.433125 9.0625 37.875 C6.84793921 38.82823451 6.84793921 38.82823451 6 41 C5.48978021 46.20424187 6.15138962 48.97759169 9.22265625 53.03125 C13.17673525 63.04560084 3.28219461 84.03500852 -0.125 94.25 C-0.36199615 94.96312347 -0.59899231 95.67624695 -0.84317017 96.41098022 C-8.24836478 118.53151095 -18.92856328 137.32762634 -33.70532227 155.38476562 C-34.58730646 156.48512531 -35.43866246 157.61057875 -36.26147461 158.75585938 C-37.5078125 160.4296875 -37.5078125 160.4296875 -40 163 C-42.60546875 163.296875 -42.60546875 163.296875 -45.1875 162.75 C-47.71564643 162.2093088 -47.71564643 162.2093088 -50 162 C-50.99 162.99 -50.99 162.99 -52 164 C-56.48331185 163.76323225 -58.95056502 161.76152538 -62.3125 158.9375 C-63.19550781 158.20402344 -64.07851562 157.47054687 -64.98828125 156.71484375 C-65.65214844 156.14894531 -66.31601563 155.58304688 -67 155 C-64.3128807 151.81788504 -61.63389888 148.66598102 -58.76171875 145.6484375 C-51.54044067 138.02405777 -45.67232478 129.81676569 -40 121 C-39.2884375 119.90171875 -38.576875 118.8034375 -37.84375 117.671875 C-27.04201673 99.92617033 -21.62810625 80.05072959 -16.75244141 60.03515625 C-15.72635889 55.89620172 -14.59827053 51.79038457 -13.4375 47.6875 C-13.0401186 46.2761109 -12.64298428 44.86465221 -12.24609375 43.453125 C-12.04612793 42.74220703 -11.84616211 42.03128906 -11.64013672 41.29882812 C-10.66540981 37.79843583 -9.71944337 34.29034914 -8.77026367 30.78295898 C-5.98131667 20.48020867 -3.06451819 10.22410049 0 0 Z " fill="#FB814C" transform="translate(296,272)"/>
<path d="M0 0 C5.32163728 3.93204995 10.51221105 7.98837407 15.625 12.1875 C20.81386979 16.42812832 26.03139451 20.6247785 31.3125 24.75 C36.27159885 28.6267997 41.17297827 32.56423323 46.03515625 36.5625 C55.86480894 44.64379549 65.75718288 52.63765752 75.78125 60.4765625 C80.21721275 63.94714487 84.61085988 67.4704841 89 71 C87.67789709 74.0118602 86.36610497 75.80540131 83.796875 77.84765625 C83.15363281 78.36457031 82.51039063 78.88148438 81.84765625 79.4140625 C81.15542969 79.95804687 80.46320313 80.50203125 79.75 81.0625 C79.03199219 81.63613281 78.31398438 82.20976562 77.57421875 82.80078125 C75.38944659 84.54243384 73.19646602 86.27312674 71 88 C70.07670898 88.72678955 70.07670898 88.72678955 69.13476562 89.46826172 C66.85628025 91.26004935 64.57627527 93.04983643 62.29199219 94.83422852 C57.12518206 98.87708968 52.04086726 103.01777072 46.95874023 107.16625977 C42.14254826 111.09062885 37.27269081 114.93872935 32.37036133 118.75463867 C29.09388342 121.31756631 25.86336901 123.92712096 22.6640625 126.5859375 C21.92019287 127.20412354 21.17632324 127.82230957 20.40991211 128.45922852 C18.97765562 129.65358851 17.54852783 130.85171543 16.12329102 132.05444336 C11.30488083 136.07532358 6.28264016 139.61404633 1 143 C2.8158486 139.1402227 5.27968892 136.13735361 8.0625 132.9375 C9.06455869 131.77018032 10.06585029 130.60220174 11.06640625 129.43359375 C11.56414551 128.85335449 12.06188477 128.27311523 12.57470703 127.67529297 C14.58525686 125.3120876 16.54414643 122.90856471 18.5 120.5 C24.04192098 113.69586214 29.73308923 107.02024122 35.41601562 100.33398438 C43.07129755 91.32341049 50.6233253 82.24147166 58 73 C56.34814194 69.08273661 53.69575715 66.10911994 50.9375 62.9375 C49.93544131 61.77018032 48.93414971 60.60220174 47.93359375 59.43359375 C47.43585449 58.85335449 46.93811523 58.27311523 46.42529297 57.67529297 C44.41474314 55.3120876 42.45585357 52.90856471 40.5 50.5 C36.75147354 45.8946675 32.92915754 41.35795556 29.08374023 36.83374023 C26.2045468 33.44045891 23.36795763 30.01732214 20.5625 26.5625 C16.51393204 21.58583072 12.35454021 16.71160337 8.16040039 11.85766602 C0 2.39923702 0 2.39923702 0 0 Z " fill="#FA814C" transform="translate(401,325)"/>
<path d="M0 0 C4.77460498 3.05781029 9.13090452 6.45426938 13.5 10.0625 C18.60275928 14.24527232 23.73069172 18.38498851 28.9375 22.4375 C34.94245662 27.11960811 40.81661531 31.94989032 46.68115234 36.80615234 C51.64290692 40.90596901 56.66539296 44.91503804 61.74194336 48.87133789 C68.3441761 54.02668824 74.82298534 59.33306604 81.31298828 64.62841797 C83.53150403 66.43212585 85.76356567 68.21857918 88 70 C86.46078927 74.21821674 83.34381024 76.34158512 79.875 78.9375 C78.60050794 79.91398974 77.32711296 80.89191263 76.0546875 81.87109375 C75.38920898 82.38140137 74.72373047 82.89170898 74.03808594 83.41748047 C70.64412646 86.05279974 67.32452387 88.77798799 64 91.5 C59.0612378 95.53289843 54.09178908 99.51812299 49.0625 103.4375 C43.80244259 107.53937963 38.63750582 111.74579071 33.5 116 C26.61113121 121.70426263 19.62636687 127.26744526 12.57373047 132.76708984 C8.68882763 135.81064543 4.84585938 138.90736193 1 142 C1 137.86806928 3.20421739 136.07163555 5.8125 133.125 C6.82698805 131.95326795 7.84130623 130.78138882 8.85546875 129.609375 C9.37802246 129.01060547 9.90057617 128.41183594 10.43896484 127.79492188 C12.86058749 125.01047244 15.24338821 122.19367076 17.625 119.375 C18.31203003 118.56409912 18.31203003 118.56409912 19.01293945 117.73681641 C22.62202091 113.46972562 26.15951785 109.14687807 29.6875 104.8125 C32.26146418 101.68200302 34.87570424 98.58828722 37.5 95.5 C41.7407016 90.50915687 45.91515734 85.46920086 50.05078125 80.390625 C52.34602523 77.57561635 54.66739759 74.78407384 57 72 C55.47260916 68.57326304 53.45668829 65.94158718 51.0625 63.0625 C50.25941406 62.09441406 49.45632813 61.12632813 48.62890625 60.12890625 C45.46269235 56.35210798 42.27728905 52.59150589 39.0859375 48.8359375 C36.20567451 45.44220144 33.36861057 42.01812622 30.5625 38.5625 C26.60982994 33.70474628 22.54451931 28.95317233 18.45703125 24.20922852 C14.53439868 19.64728228 10.70121421 15.02306718 6.9140625 10.34765625 C5.28468702 8.34917734 3.62154707 6.38967747 1.9375 4.4375 C0 2 0 2 0 0 Z " fill="#FAD93C" transform="translate(402,44)"/>
<path d="M0 0 C1.8046875 0.56640625 1.8046875 0.56640625 3.8046875 1.62890625 C5.47548272 4.86607198 5.54897235 8.07669332 4.8046875 11.56640625 C2.22300796 14.6036763 0.67969757 15.44140481 -3.2578125 16.00390625 C-6.65080977 15.49856623 -7.97547674 15.19732271 -10.1953125 12.56640625 C-11.16586381 9.83229218 -11.50945273 7.45537447 -11.1953125 4.56640625 C-8.09510664 -0.33391914 -5.39854252 -1.13063815 0 0 Z " fill="#080703" transform="translate(133.1953125,377.43359375)"/>
<path d="M0 0 C2.4375 1.5 2.4375 1.5 4 4 C4.80414661 8.04560357 4.63828902 10.97873756 2.4375 14.5 C-0.94888329 16.58392818 -3.09385318 16.55802097 -7 16 C-9.4375 14.5 -9.4375 14.5 -11 12 C-11.80414661 7.95439643 -11.63828902 5.02126244 -9.4375 1.5 C-6.05111671 -0.58392818 -3.90614682 -0.55802097 0 0 Z " fill="#060502" transform="translate(90,399)"/>
</svg>
