<?xml version="1.0" encoding="UTF-8"?>
<svg version="1.1" xmlns="http://www.w3.org/2000/svg" width="512" height="512">
<path d="M0 0 C5.12998851 2.82630734 9.17365121 6.79052265 13.375 10.8125 C14.71268946 12.07772454 16.05122105 13.34205935 17.390625 14.60546875 C18.02162109 15.20149902 18.65261719 15.7975293 19.30273438 16.41162109 C21.78452833 18.73419754 24.34639916 20.95472623 26.921875 23.171875 C30.3666862 26.20227282 33.71528301 29.33694015 37.08032227 32.45532227 C41.17748351 36.24929713 45.31436483 39.99569489 49.47265625 43.72265625 C52.33082203 46.29809775 55.16710261 48.89685764 58 51.5 C61.64927171 54.85293117 65.31169598 58.18998357 69 61.5 C73.20684327 65.27537217 77.37674853 69.08980448 81.5390625 72.9140625 C84.67667086 75.79422607 87.83020941 78.65531614 91 81.5 C95.20684327 85.27537217 99.37674853 89.08980448 103.5390625 92.9140625 C106.67667086 95.79422607 109.83020941 98.65531614 113 101.5 C117.20684327 105.27537217 121.37674853 109.08980448 125.5390625 112.9140625 C128.67667086 115.79422607 131.83020941 118.65531614 135 121.5 C139.20684327 125.27537217 143.37674853 129.08980448 147.5390625 132.9140625 C150.67667086 135.79422607 153.83020941 138.65531614 157 141.5 C161.20021441 145.26942319 165.36786038 149.07329773 169.51708984 152.89868164 C173.62730316 156.68180991 177.81546124 160.3709899 182.0390625 164.02734375 C185.72277475 167.73307021 186.30921163 170.70403414 186.375 175.875 C186.40335937 176.88304687 186.43171875 177.89109375 186.4609375 178.9296875 C185.36977248 186.19795619 179.41259571 190.72111377 174.25 195.4375 C173.57195312 196.06720703 172.89390625 196.69691406 172.1953125 197.34570312 C168.15445972 201.08310784 164.04036227 204.72765027 159.88867188 208.34106445 C157.08688248 210.80204673 154.35410261 213.3340229 151.625 215.875 C146.96166777 220.1986416 142.26303824 224.47818453 137.52734375 228.72265625 C134.66917797 231.29809775 131.83289739 233.89685764 129 236.5 C124.54667383 240.59169207 120.06340112 244.64822977 115.5625 248.6875 C112.69399591 251.27615003 109.8452335 253.88585146 107 256.5 C102.54664513 260.59166107 98.06340146 264.64822946 93.5625 268.6875 C90.69399591 271.27615003 87.8452335 273.88585146 85 276.5 C80.54664513 280.59166107 76.06340146 284.64822946 71.5625 288.6875 C68.69399591 291.27615003 65.8452335 293.88585146 63 296.5 C58.54664513 300.59166107 54.06340146 304.64822946 49.5625 308.6875 C46.69399591 311.27615003 43.8452335 313.88585146 41 316.5 C36.54592208 320.5923254 32.06345303 324.65114608 27.55859375 328.6875 C25.21776102 330.80318393 22.90066186 332.94264934 20.58740234 335.08837891 C1.89218729 352.39477235 1.89218729 352.39477235 -9.015625 352.27734375 C-13.04015882 351.90333603 -15.08009163 350.77391295 -18 348 C-22.05500046 343.02153695 -22.56709894 339.57341515 -22.45410156 333.42431641 C-22.45468567 332.58463318 -22.45526978 331.74494995 -22.45587158 330.87982178 C-22.45309739 328.1199732 -22.4220375 325.36122107 -22.390625 322.6015625 C-22.38316023 320.68200266 -22.37746841 318.76243518 -22.37347412 316.84286499 C-22.35823638 311.80225408 -22.31897054 306.76210768 -22.2746582 301.72167969 C-22.23366539 296.57363162 -22.21545454 291.42550815 -22.1953125 286.27734375 C-22.15247454 276.18469228 -22.08424569 266.09238484 -22 256 C-26.5941361 256.24792157 -31.18786722 256.50216987 -35.78135681 256.76179504 C-37.33764109 256.84892132 -38.89401615 256.93444371 -40.45048523 257.01820374 C-85.50729581 259.44887262 -128.13050148 272.49495911 -165 299 C-165.69367676 299.49612793 -166.38735352 299.99225586 -167.10205078 300.50341797 C-170.89951529 303.22402705 -174.68413967 305.9617248 -178.4609375 308.7109375 C-182.7783491 311.84903052 -187.13271963 314.93184091 -191.5 318 C-197.36506867 322.12364257 -203.19416643 326.29338182 -209 330.5 C-215.08334962 334.90461287 -221.18298274 339.28481184 -227.3125 343.625 C-228.36147461 344.37040039 -228.36147461 344.37040039 -229.43164062 345.13085938 C-241.7862393 353.85531153 -241.7862393 353.85531153 -249.23828125 352.6328125 C-254.17860082 351.28771709 -257.74936378 349.32991536 -260.80458069 345.15466309 C-264.50199793 338.49031664 -262.88603644 330.19879564 -261.41015625 323.09375 C-261.23080536 322.17898895 -261.05145447 321.26422791 -260.8666687 320.32174683 C-260.28246071 317.37739218 -259.67467314 314.43865846 -259.0625 311.5 C-258.8571463 310.49511536 -258.6517926 309.49023071 -258.44021606 308.45489502 C-253.79616501 285.79366052 -247.79120229 264.02938029 -238 243 C-237.68063477 242.31292969 -237.36126953 241.62585938 -237.03222656 240.91796875 C-220.19764298 205.16370595 -194.78604065 171.65314471 -162.69482422 148.24609375 C-160.93279423 146.95058798 -159.20219615 145.61975936 -157.47265625 144.28125 C-124.46152156 119.0005709 -84.30950673 103.6517723 -43.4375 97.1875 C-42.2784314 97.0011499 -42.2784314 97.0011499 -41.09594727 96.81103516 C-36.6047624 96.1619729 -32.23932124 95.94605112 -27.69946289 95.9699707 C-26.62910294 95.97430618 -25.55874298 95.97864166 -24.45594788 95.98310852 C-23.64548508 95.98868271 -22.83502228 95.9942569 -22 96 C-22.00888245 94.93590912 -22.01776489 93.87181824 -22.0269165 92.77548218 C-22.10804948 82.74100055 -22.16798808 72.70658558 -22.20724869 62.6718502 C-22.22811166 57.51302786 -22.25640597 52.35447058 -22.30175781 47.19580078 C-22.34526124 42.21614608 -22.36914681 37.23674614 -22.37950897 32.25691605 C-22.38689224 30.35831314 -22.40131014 28.45972398 -22.42292023 26.56122971 C-22.45201408 23.89907597 -22.45595352 21.23797107 -22.45410156 18.57568359 C-22.46848267 17.79309174 -22.48286377 17.01049988 -22.49768066 16.20419312 C-22.45867869 11.01307271 -21.37714768 8.14623995 -18 4 C-12.87322962 -0.87043186 -6.74482111 -1.1943954 0 0 Z " fill="#232320" transform="translate(294,80)"/>
<path d="M0 0 C2.97816718 1.42432416 4.97931682 2.77903265 7.25 5.1875 C9.62823921 7.63598256 12.03799459 9.96071053 14.625 12.1875 C18.28143897 15.34082431 21.83484201 18.59272752 25.375 21.875 C30.04195816 26.20014712 34.74281391 30.48265221 39.48046875 34.73046875 C44.87037666 39.58556409 50.19951805 44.50779542 55.54101562 49.41601562 C61.47889501 54.87101791 67.43642391 60.30191889 73.4375 65.6875 C76.82321544 68.74290174 80.1808191 71.82856984 83.5390625 74.9140625 C86.67667086 77.79422607 89.83020941 80.65531614 93 83.5 C97.20684327 87.27537217 101.37674853 91.08980448 105.5390625 94.9140625 C109.47288242 98.52510746 113.43795899 102.09972375 117.4140625 105.6640625 C119.33509685 107.39937751 121.24581641 109.14314581 123.1484375 110.8984375 C123.9528125 111.6399707 123.9528125 111.6399707 124.7734375 112.39648438 C125.81400022 113.35710142 126.85314583 114.31925662 127.890625 115.28320312 C130.49225762 117.68443972 133.12005665 119.93899789 136 122 C134.91681133 125.24956601 134.29783983 125.83392636 131.75 127.9375 C127.94984007 131.15878252 124.27350174 134.48478513 120.625 137.875 C115.96126143 142.19820738 111.26304622 146.47817738 106.52734375 150.72265625 C103.66917797 153.29809775 100.83289739 155.89685764 98 158.5 C93.54667383 162.59169207 89.06340112 166.64822977 84.5625 170.6875 C81.69399591 173.27615003 78.8452335 175.88585146 76 178.5 C71.54664513 182.59166107 67.06340146 186.64822946 62.5625 190.6875 C59.17601679 193.74359461 55.81755186 196.82985612 52.45874023 199.91625977 C49.34366875 202.77602204 46.21148325 205.61515359 43.0625 208.4375 C39.17629402 211.92448097 35.33157193 215.45331985 31.5 219 C26.88654382 223.27042836 22.24283392 227.50281642 17.5546875 231.69140625 C15.62659202 233.43376776 13.71817058 235.19006852 11.8203125 236.96484375 C11.27898682 237.46878662 10.73766113 237.97272949 10.17993164 238.49194336 C9.12333734 239.47708796 8.07026955 240.46603222 7.02124023 241.45922852 C4.67386123 243.64273612 3.08378323 244.97207226 0 246 C-0.00546844 244.81729019 -0.00546844 244.81729019 -0.01104736 243.61068726 C-0.04897518 236.1659125 -0.10588144 228.72163553 -0.18390274 221.27718163 C-0.22334698 217.450233 -0.25555011 213.62351341 -0.27099609 209.79638672 C-0.2861833 206.10025822 -0.32066404 202.40475949 -0.36830902 198.7089119 C-0.38310181 197.30163687 -0.39103981 195.89427192 -0.39188385 194.4869194 C-0.39426121 192.5098897 -0.42366946 190.53294925 -0.45410156 188.55615234 C-0.46298401 187.43252289 -0.47186646 186.30889343 -0.48101807 185.1512146 C-1.25358078 180.46027888 -3.52441822 177.29672338 -7.0625 174.1875 C-10.24203855 172.23875057 -12.87479534 171.86983804 -16.51782227 171.83886719 C-17.89457123 171.82469002 -17.89457123 171.82469002 -19.2991333 171.81022644 C-20.79268341 171.80361748 -20.79268341 171.80361748 -22.31640625 171.796875 C-23.35182556 171.78977005 -24.38724487 171.7826651 -25.45404053 171.77534485 C-71.486181 171.53181926 -112.96205702 177.23342912 -155 197 C-155.66418945 197.30486328 -156.32837891 197.60972656 -157.01269531 197.92382812 C-175.469416 206.42254685 -191.88649744 218.47724598 -208.41650391 230.17236328 C-213.00068505 233.41534004 -217.59312589 236.64648747 -222.1875 239.875 C-223.05568359 240.48851318 -223.92386719 241.10202637 -224.81835938 241.73413086 C-225.61435547 242.29366455 -226.41035156 242.85319824 -227.23046875 243.4296875 C-227.93582764 243.92710449 -228.64118652 244.42452148 -229.36791992 244.93701172 C-231 246 -231 246 -232 246 C-231.47275822 239.83672537 -230.45917537 234.39886857 -228.4375 228.5625 C-228.17356445 227.790271 -227.90962891 227.01804199 -227.63769531 226.22241211 C-220.10671331 204.73734755 -209.54199956 184.29273647 -196 166 C-195.34112793 165.10571289 -195.34112793 165.10571289 -194.66894531 164.19335938 C-172.39140671 134.23675817 -142.96417193 110.50783467 -109 95 C-108.28972656 94.6704834 -107.57945312 94.3409668 -106.84765625 94.00146484 C-85.75357514 84.31171888 -63.9700706 78.96428814 -41 76 C-40.22084229 75.8983252 -39.44168457 75.79665039 -38.63891602 75.69189453 C-32.17307682 74.90716742 -25.70551827 74.7064074 -19.19726562 74.5703125 C-14.08701074 74.38263673 -10.42535218 73.82730834 -6 71 C-1.72580088 66.37924419 -0.88108072 63.0602058 -0.79467773 56.8762207 C-0.77473251 55.61513992 -0.75478729 54.35405914 -0.73423767 53.05476379 C-0.71725467 51.67843753 -0.70037581 50.30210998 -0.68359375 48.92578125 C-0.66301803 47.51758725 -0.6420214 46.10939935 -0.62062073 44.70121765 C-0.56546378 40.99739519 -0.51602646 37.29351759 -0.46777344 33.58959961 C-0.41751179 29.80903218 -0.36185008 26.02854471 -0.30664062 22.24804688 C-0.19913708 14.83209898 -0.09767486 7.41608455 0 0 Z " fill="#FEC007" transform="translate(304,133)"/>
</svg>
